PathFileType	4	(X/Y/Z)	 0.06m3min.trc
DataRate	CameraRate	NumFrames	NumMarkers	Units	OrigDataRate	OrigDataStartFrame	OrigNumFrames
200	200	11	35	m	200	251	1000
Frame#	Time	C7			LSH			RSH			MAN			RASI			LASI			HIPR			HIPL			RPSI			LPSI			COX			RTHI1			RTHI2			RTHI3			RTHI4			RSHA1			RSHA2			RSHA3			RSHA4			RHEEL			RMET5			RMET1			RTOE			LTHI1			LTHI2			LTHI3			LTHI4			LSHA1			LSHA2			LSHA3			LSHA4			LHEEL			LMET5			LMET1			LTOE			
		X1	Y1	Z1	X2	Y2	Z2	X3	Y3	Z3	X4	Y4	Z4	X5	Y5	Z5	X6	Y6	Z6	X7	Y7	Z7	X8	Y8	Z8	X9	Y9	Z9	X10	Y10	Z10	X11	Y11	Z11	X12	Y12	Z12	X13	Y13	Z13	X14	Y14	Z14	X15	Y15	Z15	X16	Y16	Z16	X17	Y17	Z17	X18	Y18	Z18	X19	Y19	Z19	X20	Y20	Z20	X21	Y21	Z21	X22	Y22	Z22	X23	Y23	Z23	X24	Y24	Z24	X25	Y25	Z25	X26	Y26	Z26	X27	Y27	Z27	X28	Y28	Z28	X29	Y29	Z29	X30	Y30	Z30	X31	Y31	Z31	X32	Y32	Z32	X33	Y33	Z33	X34	Y34	Z34	X35	Y35	Z35	
251	1.2550	-0.327130	1.326985	-0.500260	-0.271931	1.308368	-0.661020	-0.264392	1.304345	-0.330618	-0.209593	1.278113	-0.500332	-0.194978	0.887332	-0.405568	-0.191949	0.899089	-0.604791	-0.242860	0.928818	-0.360525	-0.242040	0.942119	-0.628217	-0.342967	0.925176	-0.433900	-0.335134	0.933119	-0.547457	-0.345252	0.930584	-0.494662	-0.274619	0.677519	-0.320284	-0.251332	0.622626	-0.318054	-0.191027	0.645938	-0.324220	-0.207694	0.704687	-0.327627	-0.310802	0.285194	-0.294011	-0.331296	0.247124	-0.297969	-0.274729	0.224499	-0.300815	-0.258658	0.261834	-0.301472	-0.428901	0.076801	-0.353759	-0.289109	0.027234	-0.273699	-0.248257	0.033102	-0.352010	-0.222505	0.025235	-0.338511	-0.262366	0.698811	-0.670904	-0.241340	0.640677	-0.671319	-0.179859	0.656894	-0.659776	-0.192102	0.716081	-0.657815	-0.326301	0.254072	-0.675964	-0.347771	0.220372	-0.670805	-0.290952	0.193988	-0.663712	-0.276276	0.234691	-0.670976	-0.435763	0.073022	-0.623941	-0.286949	0.025221	-0.694480	-0.250052	0.031470	-0.618594	-0.224014	0.022961	-0.630699	
252	1.2600	-0.327491	1.331353	-0.500585	-0.272192	1.312843	-0.661211	-0.264876	1.308934	-0.331003	-0.210005	1.282684	-0.500577	-0.194271	0.892103	-0.405663	-0.191178	0.903495	-0.604823	-0.241982	0.933800	-0.360744	-0.241147	0.946555	-0.628375	-0.342075	0.929855	-0.434071	-0.334222	0.937625	-0.547551	-0.344396	0.935144	-0.494790	-0.275548	0.682447	-0.320125	-0.252859	0.627414	-0.317641	-0.192250	0.650088	-0.323654	-0.208405	0.708998	-0.327286	-0.313099	0.288164	-0.293612	-0.333195	0.249863	-0.297742	-0.276331	0.227860	-0.300081	-0.260763	0.265360	-0.300663	-0.428434	0.078915	-0.353589	-0.289000	0.027282	-0.273732	-0.248114	0.033215	-0.351705	-0.222502	0.025254	-0.338376	-0.262831	0.703414	-0.671087	-0.242136	0.645162	-0.671701	-0.180546	0.661000	-0.660221	-0.192448	0.720243	-0.658099	-0.327534	0.256848	-0.676799	-0.348656	0.222907	-0.671586	-0.291532	0.196988	-0.664727	-0.277274	0.237986	-0.672072	-0.434989	0.075443	-0.624811	-0.286720	0.025233	-0.694604	-0.249944	0.031645	-0.618932	-0.224024	0.022990	-0.630799	
253	1.2650	-0.327823	1.335857	-0.500913	-0.272442	1.317451	-0.661395	-0.265336	1.313656	-0.331408	-0.210382	1.287390	-0.500822	-0.193583	0.897028	-0.405748	-0.190464	0.908081	-0.604886	-0.241181	0.938901	-0.360941	-0.240425	0.951080	-0.628559	-0.341213	0.934619	-0.434184	-0.333366	0.942230	-0.547599	-0.343573	0.939806	-0.494877	-0.276504	0.687550	-0.319971	-0.254480	0.632369	-0.317151	-0.193502	0.654398	-0.323065	-0.209157	0.713459	-0.326941	-0.315384	0.291280	-0.293193	-0.335055	0.252786	-0.297470	-0.277907	0.231409	-0.299319	-0.262900	0.269063	-0.299776	-0.427837	0.081209	-0.353399	-0.288862	0.027352	-0.273766	-0.247955	0.033360	-0.351350	-0.222498	0.025283	-0.338224	-0.263278	0.708202	-0.671291	-0.242913	0.649830	-0.672121	-0.181219	0.665296	-0.660688	-0.192781	0.724589	-0.658382	-0.328776	0.259787	-0.677665	-0.349524	0.225599	-0.672398	-0.292090	0.200194	-0.665818	-0.278281	0.241459	-0.673223	-0.434101	0.078045	-0.625702	-0.286477	0.025257	-0.694723	-0.249814	0.031851	-0.619324	-0.224026	0.023028	-0.630924	
254	1.2700	-0.328126	1.340457	-0.501243	-0.272676	1.322153	-0.661571	-0.265771	1.318488	-0.331825	-0.210721	1.292207	-0.501063	-0.192927	0.902070	-0.405826	-0.189801	0.912822	-0.604970	-0.240454	0.944089	-0.361111	-0.239860	0.955681	-0.628757	-0.340380	0.939470	-0.434275	-0.332571	0.946915	-0.547604	-0.342788	0.944544	-0.494929	-0.277483	0.692764	-0.319834	-0.256194	0.637451	-0.316587	-0.194779	0.658820	-0.322468	-0.209920	0.718032	-0.326573	-0.317667	0.294524	-0.292794	-0.336869	0.255855	-0.297151	-0.279454	0.235140	-0.298546	-0.265033	0.272925	-0.298831	-0.427121	0.083663	-0.353153	-0.288689	0.027446	-0.273795	-0.247776	0.033544	-0.350935	-0.222495	0.025326	-0.338052	-0.263702	0.713143	-0.671503	-0.243681	0.654663	-0.672576	-0.181879	0.669748	-0.661175	-0.193095	0.729082	-0.658676	-0.330007	0.262873	-0.678558	-0.350359	0.228437	-0.673241	-0.292612	0.203594	-0.666988	-0.279285	0.245085	-0.674426	-0.433098	0.080814	-0.626618	-0.286216	0.025296	-0.694840	-0.249660	0.032093	-0.619775	-0.224019	0.023076	-0.631077	
255	1.2750	-0.328399	1.345129	-0.501578	-0.272894	1.326922	-0.661739	-0.266185	1.323400	-0.332248	-0.211018	1.297111	-0.501297	-0.192313	0.907179	-0.405901	-0.189190	0.917686	-0.605067	-0.239798	0.949337	-0.361253	-0.239428	0.960346	-0.628950	-0.339582	0.944360	-0.434343	-0.331837	0.951651	-0.547566	-0.342065	0.949335	-0.494951	-0.278477	0.698058	-0.319712	-0.257882	0.642568	-0.316071	-0.196074	0.663334	-0.321864	-0.210689	0.722687	-0.326188	-0.319926	0.297883	-0.292401	-0.338626	0.259046	-0.296798	-0.280958	0.239002	-0.297739	-0.267070	0.276921	-0.297914	-0.426291	0.086274	-0.352826	-0.288480	0.027558	-0.273815	-0.247582	0.033768	-0.350458	-0.222494	0.025382	-0.337861	-0.264101	0.718215	-0.671717	-0.244439	0.659631	-0.673049	-0.182531	0.674318	-0.661680	-0.193388	0.733685	-0.658984	-0.331210	0.266093	-0.679470	-0.351143	0.231398	-0.674113	-0.293081	0.207154	-0.668230	-0.280266	0.248845	-0.675670	-0.431984	0.083734	-0.627569	-0.285936	0.025356	-0.694961	-0.249484	0.032370	-0.620290	-0.224003	0.023135	-0.631259	
256	1.2800	-0.328649	1.349844	-0.501918	-0.273096	1.331730	-0.661897	-0.266575	1.328365	-0.332673	-0.211275	1.302079	-0.501519	-0.191736	0.912316	-0.405987	-0.188628	0.922632	-0.605168	-0.239208	0.954605	-0.361373	-0.239100	0.965068	-0.629120	-0.338818	0.949291	-0.434383	-0.331159	0.956423	-0.547492	-0.341400	0.954155	-0.494963	-0.279478	0.703404	-0.319621	-0.259463	0.647680	-0.315700	-0.197381	0.667908	-0.321262	-0.211466	0.727392	-0.325795	-0.322128	0.301347	-0.292011	-0.340307	0.262345	-0.296411	-0.282412	0.242970	-0.296888	-0.268999	0.281035	-0.297025	-0.425347	0.089022	-0.352413	-0.288237	0.027683	-0.273819	-0.247381	0.034024	-0.349928	-0.222493	0.025454	-0.337655	-0.264484	0.723389	-0.671933	-0.245202	0.664700	-0.673532	-0.183182	0.678977	-0.662205	-0.193666	0.738364	-0.659309	-0.332372	0.269417	-0.680404	-0.351868	0.234467	-0.675014	-0.293491	0.210867	-0.669540	-0.281207	0.252727	-0.676950	-0.430759	0.086785	-0.628560	-0.285638	0.025435	-0.695090	-0.249290	0.032685	-0.620872	-0.223975	0.023208	-0.631468	
257	1.2850	-0.328878	1.354577	-0.502259	-0.273276	1.336553	-0.662043	-0.266946	1.333354	-0.333093	-0.211488	1.307084	-0.501726	-0.191203	0.917442	-0.406087	-0.188106	0.927627	-0.605264	-0.238674	0.959864	-0.361477	-0.238843	0.969847	-0.629253	-0.338082	0.954250	-0.434396	-0.330529	0.961216	-0.547391	-0.340767	0.958990	-0.494955	-0.280488	0.708753	-0.319569	-0.260960	0.652785	-0.315448	-0.198696	0.672511	-0.320671	-0.212245	0.732123	-0.325407	-0.324257	0.304898	-0.291633	-0.341908	0.265706	-0.295992	-0.283800	0.247020	-0.295993	-0.270819	0.285240	-0.296151	-0.424315	0.091901	-0.351909	-0.287960	0.027826	-0.273803	-0.247177	0.034310	-0.349349	-0.222493	0.025544	-0.337437	-0.264863	0.728630	-0.672139	-0.245974	0.669846	-0.674017	-0.183843	0.683693	-0.662743	-0.193933	0.743094	-0.659651	-0.333482	0.272830	-0.681347	-0.352520	0.237628	-0.675941	-0.293839	0.214694	-0.670915	-0.282106	0.256695	-0.678258	-0.429426	0.089948	-0.629583	-0.285323	0.025534	-0.695224	-0.249071	0.033039	-0.621517	-0.223937	0.023299	-0.631711	
258	1.2900	-0.329084	1.359294	-0.502599	-0.273442	1.341347	-0.662190	-0.267302	1.338336	-0.333508	-0.211702	1.312074	-0.501936	-0.190723	0.922513	-0.406197	-0.187611	0.932631	-0.605346	-0.238183	0.965074	-0.361576	-0.238629	0.974670	-0.629339	-0.337370	0.959201	-0.434413	-0.329940	0.966015	-0.547269	-0.340189	0.963819	-0.494940	-0.281493	0.714071	-0.319558	-0.262386	0.657872	-0.315302	-0.200010	0.677119	-0.320103	-0.213024	0.736853	-0.325023	-0.326295	0.308498	-0.291267	-0.343417	0.269111	-0.295549	-0.285108	0.251123	-0.295050	-0.272522	0.289498	-0.295298	-0.423194	0.094884	-0.351297	-0.287651	0.027986	-0.273764	-0.246974	0.034635	-0.348727	-0.222492	0.025645	-0.337207	-0.265251	0.733909	-0.672324	-0.246769	0.675038	-0.674500	-0.184526	0.688435	-0.663293	-0.194205	0.747846	-0.660014	-0.334530	0.276320	-0.682302	-0.353095	0.240858	-0.676894	-0.294120	0.218595	-0.672352	-0.282945	0.260758	-0.679616	-0.427997	0.093206	-0.630652	-0.284990	0.025655	-0.695362	-0.248829	0.033425	-0.622222	-0.223882	0.023407	-0.631987	
259	1.2950	-0.329267	1.363978	-0.502933	-0.273598	1.346097	-0.662339	-0.267633	1.343283	-0.333914	-0.211917	1.317023	-0.502147	-0.190287	0.927493	-0.406324	-0.187142	0.937609	-0.605406	-0.237723	0.970208	-0.361680	-0.238418	0.979514	-0.629371	-0.336686	0.964107	-0.434414	-0.329384	0.970804	-0.547134	-0.339667	0.968628	-0.494916	-0.282489	0.719346	-0.319592	-0.263744	0.662921	-0.315260	-0.201311	0.681722	-0.319554	-0.213814	0.741561	-0.324667	-0.328221	0.312128	-0.290910	-0.344820	0.272536	-0.295083	-0.286323	0.255249	-0.294067	-0.274118	0.293782	-0.294461	-0.421981	0.097951	-0.350594	-0.287316	0.028162	-0.273700	-0.246776	0.034988	-0.348076	-0.222486	0.025756	-0.336971	-0.265658	0.739208	-0.672510	-0.247586	0.680245	-0.674969	-0.185239	0.693182	-0.663856	-0.194494	0.752608	-0.660381	-0.335514	0.279857	-0.683270	-0.353591	0.244119	-0.677870	-0.294331	0.222550	-0.673841	-0.283720	0.264890	-0.681012	-0.426468	0.096534	-0.631767	-0.284647	0.025794	-0.695501	-0.248559	0.033838	-0.622981	-0.223806	0.023537	-0.632302	
260	1.3000	-0.329424	1.368604	-0.503254	-0.273737	1.350780	-0.662487	-0.267945	1.348165	-0.334308	-0.212136	1.321904	-0.502359	-0.189895	0.932355	-0.406468	-0.186690	0.942524	-0.605433	-0.237273	0.975229	-0.361798	-0.238183	0.984373	-0.629348	-0.336027	0.968979	-0.434404	-0.328851	0.975564	-0.546993	-0.339151	0.973403	-0.494870	-0.283475	0.724536	-0.319685	-0.265090	0.667937	-0.315256	-0.202596	0.686276	-0.319038	-0.214609	0.746215	-0.324344	-0.330030	0.315749	-0.290578	-0.346112	0.275957	-0.294617	-0.287430	0.259383	-0.293056	-0.275633	0.298060	-0.293602	-0.420669	0.101074	-0.349810	-0.286956	0.028354	-0.273616	-0.246581	0.035359	-0.347410	-0.222471	0.025880	-0.336720	-0.266097	0.744490	-0.672687	-0.248435	0.685435	-0.675427	-0.185980	0.697911	-0.664428	-0.194813	0.757351	-0.660751	-0.336429	0.283406	-0.684245	-0.354004	0.247398	-0.678866	-0.294477	0.226552	-0.675374	-0.284431	0.269067	-0.682441	-0.424834	0.099898	-0.632901	-0.284290	0.025948	-0.695634	-0.248258	0.034274	-0.623780	-0.223706	0.023699	-0.632661	
261	1.3050	-0.329552	1.373150	-0.503564	-0.273855	1.355372	-0.662633	-0.268236	1.352960	-0.334685	-0.212353	1.326692	-0.502570	-0.189550	0.937071	-0.406624	-0.186251	0.947345	-0.605424	-0.236819	0.980128	-0.361935	-0.237901	0.989220	-0.629271	-0.335387	0.973790	-0.434389	-0.328335	0.980281	-0.546853	-0.338644	0.978126	-0.494803	-0.284446	0.729617	-0.319829	-0.266450	0.672890	-0.315249	-0.203856	0.690766	-0.318566	-0.215397	0.750799	-0.324058	-0.331712	0.319342	-0.290264	-0.347283	0.279353	-0.294128	-0.288424	0.263487	-0.292031	-0.277057	0.302309	-0.292738	-0.419266	0.104226	-0.348939	-0.286570	0.028567	-0.273520	-0.246374	0.035761	-0.346729	-0.222449	0.026020	-0.336444	-0.266567	0.749723	-0.672849	-0.249310	0.690578	-0.675872	-0.186754	0.702588	-0.665003	-0.195162	0.762056	-0.661119	-0.337274	0.286939	-0.685221	-0.354331	0.250659	-0.679879	-0.294551	0.230553	-0.676934	-0.285080	0.273249	-0.683887	-0.423093	0.103277	-0.634061	-0.283917	0.026118	-0.695757	-0.247927	0.034720	-0.624600	-0.223589	0.023904	-0.633082	
